<svg t="1667829203195" class="icon" viewBox="0 0 1024 1024" version="1.1" xmlns="http://www.w3.org/2000/svg" p-id="7377" width="200" height="200"><path d="M512 983.04c-14.336 0-28.672-4.096-40.96-11.264l-336.896-194.56c-25.6-14.336-40.96-41.984-40.96-70.656V317.44c0-28.672 15.36-56.32 40.96-70.656L471.04 51.2c25.6-14.336 56.32-14.336 81.92 0l336.896 194.56c25.6 14.336 40.96 41.984 40.96 70.656v389.12c0 28.672-15.36 56.32-40.96 70.656L552.96 972.8c-12.288 7.168-26.624 10.24-40.96 10.24z m0-860.16L175.104 317.44v389.12L512 901.12l336.896-194.56V317.44l20.48-35.84-20.48 35.84L512 122.88z" fill="#333C4F" p-id="7378"></path><path d="M391.168 748.544c-10.24 0-20.48-3.072-29.696-9.216-15.36-11.264-23.552-30.72-20.48-49.152l18.432-108.544-78.848-76.8c-14.336-13.312-18.432-32.768-12.288-51.2 6.144-18.432 21.504-31.744 40.96-33.792l108.544-15.36 49.152-98.304c8.192-17.408 25.6-27.648 45.056-27.648 19.456 0 36.864 11.264 45.056 27.648l49.152 98.304L714.752 419.84c19.456 3.072 34.816 16.384 40.96 33.792s1.024 37.888-12.288 51.2l-78.848 76.8 18.432 108.544c3.072 19.456-4.096 37.888-20.48 49.152-15.36 11.264-35.84 13.312-53.248 4.096l-97.28-51.2-97.28 51.2c-7.168 3.072-15.36 5.12-23.552 5.12z m106.496-64.512z m28.672-1.024c0 1.024 0 1.024 0 0zM512 605.184c8.192 0 16.384 2.048 23.552 6.144l55.296 28.672-10.24-61.44c-3.072-16.384 3.072-32.768 14.336-45.056l45.056-44.032-62.464-8.192c-16.384-2.048-30.72-12.288-37.888-27.648L512 397.312l-27.648 56.32c-7.168 15.36-21.504 25.6-37.888 27.648l-62.464 9.216 45.056 44.032c12.288 11.264 17.408 28.672 14.336 45.056l-10.24 61.44 55.296-28.672c7.168-5.12 15.36-7.168 23.552-7.168z m149.504-40.96zM483.328 339.968z" fill="#333C4F" p-id="7379"></path></svg>